<?xml version="1.0" encoding="utf-8"?>
<!-- Generator: Adobe Illustrator 24.2.1, SVG Export Plug-In . SVG Version: 6.00 Build 0)  -->
<svg version="1.1" id="レイヤー_1" xmlns="http://www.w3.org/2000/svg" xmlns:xlink="http://www.w3.org/1999/xlink" x="0px"
	 y="0px" viewBox="0 0 24 24" style="enable-background:new 0 0 24 24;" xml:space="preserve">
<style type="text/css">
	.st0{fill:#FFFFFF;}
</style>
<g id="グループ_99">
	<path id="cart" class="st0" d="M1.3,3C0.5,3.1-0.1,3.9,0,4.7S0.9,6.1,1.8,6h4.5l0.3,0.8l1.2,3.8L9,14.3c0.2,0.4,0.6,0.7,1,0.8h10.5
		c0.5,0,0.9-0.3,1-0.8L24,6.8C24.1,6.4,23.9,6,23.5,6H10.2L9,3.8C8.8,3.3,8.3,3,7.7,3h-6C1.6,3,1.5,3,1.4,3H1.3L1.3,3z M10.8,18
		c-0.8,0-1.5,0.7-1.5,1.5S10,21,10.8,21s1.5-0.7,1.5-1.5S11.6,18,10.8,18L10.8,18L10.8,18z M19.8,18c-0.8,0-1.5,0.7-1.5,1.5
		S19,21,19.8,21s1.5-0.7,1.5-1.5S20.6,18,19.8,18L19.8,18L19.8,18z"/>
</g>
</svg>
