<?xml version="1.0" encoding="utf-8"?>
<!-- Generator: Adobe Illustrator 24.3.0, SVG Export Plug-In . SVG Version: 6.00 Build 0)  -->
<svg version="1.1" id="レイヤー_1" xmlns="http://www.w3.org/2000/svg" xmlns:xlink="http://www.w3.org/1999/xlink" x="0px"
	 y="0px" viewBox="0 0 40 40" style="enable-background:new 0 0 40 40;" xml:space="preserve">
<style type="text/css">
	.st0{fill:#FFFFFF;}
	.st1{fill:#89D1C8;}
	.st2{fill:#808080;}
	.st3{fill:#316F7E;}
</style>
<g id="グループ_342" transform="translate(-140 -759)">
	<g id="グループ_339">
		<path class="st0" d="M143.2,765.8h33.6c1.8,0,3.2,1.4,3.2,3.2v20c0,1.8-1.4,3.2-3.2,3.2h-33.6c-1.8,0-3.2-1.4-3.2-3.2v-20
			C140,767.2,141.4,765.8,143.2,765.8z"/>
		<path class="st1" d="M177.8,766l-34.8-0.2c-1.7,0.1-3,1.5-3,3.2v16l40-14v-2C180,767.6,179.1,766.4,177.8,766z"/>
	</g>
	<path d="M176.8,766.8c1.2,0,2.2,1,2.2,2.2v20c0,1.2-1,2.2-2.2,2.2h-33.6c-1.2,0-2.2-1-2.2-2.2v-20c0-1.2,1-2.2,2.2-2.2H176.8
		 M176.8,765.8h-33.6c-1.8,0-3.2,1.4-3.2,3.2v20c0,1.8,1.4,3.2,3.2,3.2h33.6c1.8,0,3.2-1.4,3.2-3.2v-20
		C180,767.2,178.6,765.8,176.8,765.8L176.8,765.8z"/>
	<g id="グループ_341">
		<rect id="長方形_158" x="144" y="786" class="st2" width="5" height="1"/>
		<rect id="長方形_158_1_" x="151" y="786" class="st2" width="5" height="1"/>
		<rect id="長方形_158_2_" x="158" y="786" class="st2" width="5" height="1"/>
		<rect id="長方形_158_3_" x="165" y="786" class="st2" width="5" height="1"/>
		<rect id="長方形_162" x="144" y="788" class="st2" width="12" height="1"/>
	</g>
	<rect id="長方形_163" x="144" y="769.5" class="st3" width="12" height="1"/>
</g>
</svg>
