<?xml version="1.0" encoding="utf-8"?>
<!-- Generator: Adobe Illustrator 24.2.3, SVG Export Plug-In . SVG Version: 6.00 Build 0)  -->
<svg version="1.1" id="レイヤー_1" xmlns="http://www.w3.org/2000/svg" xmlns:xlink="http://www.w3.org/1999/xlink" x="0px"
	 y="0px" viewBox="0 0 24 24" style="enable-background:new 0 0 24 24;" xml:space="preserve">
<style type="text/css">
	.st0{fill:#1E0F40;}
</style>
<path class="st0" d="M12,0C5.4,0,0,5.4,0,12s5.4,12,12,12s12-5.4,12-12S18.6,0,12,0z M12,3c5,0,9,4,9,9s-4,9-9,9s-9-4-9-9S7,3,12,3z
	 M10.5,6v6.7l0.5,0.4l1.5,1.5l1,1.1l2.2-2.2l-1.1-1l-1-1V6.1L10.5,6L10.5,6z"/>
</svg>
