<svg xmlns="http://www.w3.org/2000/svg" xmlns:xlink="http://www.w3.org/1999/xlink" width="44.667" height="35.712" viewBox="0 0 44.667 35.712">
  <defs>
    <clipPath id="clip-path">
      <rect id="Rectangle_241" data-name="Rectangle 241" width="44.667" height="35.712" transform="translate(0 0)" fill="none"/>
    </clipPath>
  </defs>
  <g id="Group_369" data-name="Group 369" transform="translate(0 0)">
    <path id="Path_530" data-name="Path 530" d="M0,4.081V6.767H5.333l7.559,20.262H32.571V24.344H14.756l-1.45-3.89H33.229L38.111,7.937H8.637L7.2,4.081Z" fill="#fff"/>
    <g id="Group_370" data-name="Group 370">
      <g id="Group_369-2" data-name="Group 369" clip-path="url(#clip-path)">
        <path id="Path_531" data-name="Path 531" d="M15.761,30.161a2.776,2.776,0,1,0,2.775,2.775,2.779,2.779,0,0,0-2.775-2.775" fill="#fff"/>
        <path id="Path_532" data-name="Path 532" d="M29.393,30.161a2.776,2.776,0,1,0,2.776,2.775,2.778,2.778,0,0,0-2.776-2.775" fill="#fff"/>
        <path id="Path_533" data-name="Path 533" d="M44.667,7.418A7.418,7.418,0,1,1,37.249,0a7.418,7.418,0,0,1,7.418,7.418" fill="#ff7101" opacity="0"/>
      </g>
    </g>
  </g>
</svg>
