<svg xmlns="http://www.w3.org/2000/svg" width="20.2" height="34.201" viewBox="0 0 20.2 34.201">
  <defs>
    <style>
      .cls-1, .cls-3 {
        fill: none;
        stroke: #e0dcd8;
        stroke-linejoin: round;
        stroke-width: 1.2px;
      }

      .cls-2 {
        fill: #e0dcd8;
      }

      .cls-3 {
        stroke-linecap: round;
      }
    </style>
  </defs>
  <g id="组_1480" data-name="组 1480" transform="translate(-126.885 -332.904)">
    <path id="路径_584" data-name="路径 584" class="cls-1" d="M2196.951,1075.527a.416.416,0,0,1-.091-.157,2.452,2.452,0,0,0-2.35-2.427c.015-.006,0-.008-.052-.005-.423.025-.563-.188-.61-.311a1.443,1.443,0,0,0-1-1.131c-.009-.019-.053-.036-.141-.051-.042-.007-.267-.019-.337-.155-.252-.487.708-.487.708-.487a10.54,10.54,0,0,0-3.371-.6c-2.77.077-3.839,1.27-4.19,1.829a1.433,1.433,0,0,0-.245.585c-.044.122-.183.341-.612.316-.056,0-.068,0-.052.005a2.452,2.452,0,0,0-2.349,2.423.41.41,0,0,1-.093.161,2.45,2.45,0,0,0-2.105,2.419v.227a2.455,2.455,0,0,0,2.463,2.447h14.073a2.455,2.455,0,0,0,2.464-2.447v-.227A2.45,2.45,0,0,0,2196.951,1075.527Z" transform="translate(-2052.572 -736.7)"/>
    <circle id="椭圆_13" data-name="椭圆 13" class="cls-2" cx="2.047" cy="2.047" r="2.047" transform="translate(132.158 361.082)"/>
    <circle id="椭圆_16" data-name="椭圆 16" class="cls-2" cx="2.047" cy="2.047" r="2.047" transform="translate(137.616 361.082)"/>
    <circle id="椭圆_17" data-name="椭圆 17" class="cls-2" cx="2.047" cy="2.047" r="2.047" transform="translate(134.887 356.302)"/>
    <circle id="椭圆_21" data-name="椭圆 21" class="cls-2" cx="2.047" cy="2.047" r="2.047" transform="translate(140.345 356.302)"/>
    <circle id="椭圆_20" data-name="椭圆 20" class="cls-2" cx="2.047" cy="2.047" r="2.047" transform="translate(129.429 356.302)"/>
    <circle id="椭圆_18" data-name="椭圆 18" class="cls-2" cx="2.047" cy="2.047" r="2.047" transform="translate(132.158 351.522)"/>
    <circle id="椭圆_19" data-name="椭圆 19" class="cls-2" cx="2.047" cy="2.047" r="2.047" transform="translate(137.616 351.522)"/>
    <path id="路径_585" data-name="路径 585" class="cls-3" d="M2094.634,1295.224l2.15,20.406h12.461l2.15-20.406" transform="translate(-1966.081 -949.125)"/>
  </g>
</svg>
